<mxfile host="Electron" agent="Mozilla/5.0 (Windows NT 10.0; Win64; x64) AppleWebKit/537.36 (KHTML, like Gecko) draw.io/28.1.2 Chrome/138.0.7204.243 Electron/37.4.0 Safari/537.36" version="28.1.2">
  <diagram name="Page-1" id="edniALjMgs7cNO084p20">
    <mxGraphModel dx="2467" dy="963" grid="1" gridSize="10" guides="1" tooltips="1" connect="1" arrows="1" fold="1" page="1" pageScale="1" pageWidth="850" pageHeight="1100" math="0" shadow="0">
      <root>
        <mxCell id="0" />
        <mxCell id="1" parent="0" />
        <mxCell id="QfHRXGQwTdcdcZYuf7eO-1" value="Object&lt;div&gt;[Polymophic]&lt;/div&gt;" style="rounded=0;whiteSpace=wrap;html=1;" parent="1" vertex="1">
          <mxGeometry x="-80" y="160" width="160" height="80" as="geometry" />
        </mxCell>
        <mxCell id="QfHRXGQwTdcdcZYuf7eO-19" style="edgeStyle=orthogonalEdgeStyle;rounded=0;orthogonalLoop=1;jettySize=auto;html=1;exitX=0.5;exitY=0;exitDx=0;exitDy=0;entryX=0.5;entryY=1;entryDx=0;entryDy=0;endArrow=diamond;endFill=0;" parent="1" source="QfHRXGQwTdcdcZYuf7eO-2" target="QfHRXGQwTdcdcZYuf7eO-1" edge="1">
          <mxGeometry relative="1" as="geometry" />
        </mxCell>
        <mxCell id="QfHRXGQwTdcdcZYuf7eO-2" value="ProxyTemplate&lt;div&gt;[ Concrete Instantiations ]&lt;br&gt;[ CRTP ]&lt;/div&gt;" style="rounded=0;whiteSpace=wrap;html=1;fontColor=#0066CC;" parent="1" vertex="1">
          <mxGeometry x="-360" y="320" width="160" height="80" as="geometry" />
        </mxCell>
        <mxCell id="QfHRXGQwTdcdcZYuf7eO-17" style="edgeStyle=orthogonalEdgeStyle;rounded=0;orthogonalLoop=1;jettySize=auto;html=1;exitX=0.5;exitY=0;exitDx=0;exitDy=0;entryX=0.5;entryY=1;entryDx=0;entryDy=0;endArrow=diamond;endFill=0;" parent="1" source="QfHRXGQwTdcdcZYuf7eO-3" target="QfHRXGQwTdcdcZYuf7eO-2" edge="1">
          <mxGeometry relative="1" as="geometry" />
        </mxCell>
        <mxCell id="QfHRXGQwTdcdcZYuf7eO-3" value="ProxyObject&lt;div&gt;[ Concrete Instantiations ]&lt;br&gt;[ create a single instance ]&lt;/div&gt;" style="rounded=0;whiteSpace=wrap;html=1;fontColor=#0066CC;" parent="1" vertex="1">
          <mxGeometry x="-480" y="480" width="160" height="80" as="geometry" />
        </mxCell>
        <mxCell id="QfHRXGQwTdcdcZYuf7eO-18" style="edgeStyle=orthogonalEdgeStyle;rounded=0;orthogonalLoop=1;jettySize=auto;html=1;exitX=0.5;exitY=0;exitDx=0;exitDy=0;entryX=0.5;entryY=1;entryDx=0;entryDy=0;endArrow=diamond;endFill=0;" parent="1" source="QfHRXGQwTdcdcZYuf7eO-4" target="QfHRXGQwTdcdcZYuf7eO-2" edge="1">
          <mxGeometry relative="1" as="geometry" />
        </mxCell>
        <mxCell id="QfHRXGQwTdcdcZYuf7eO-4" value="ProxyArray&lt;div&gt;[ Concrete Instantiations ]&lt;br&gt;[ create a instance array ]&lt;/div&gt;" style="rounded=0;whiteSpace=wrap;html=1;fontColor=#0066CC;" parent="1" vertex="1">
          <mxGeometry x="-240" y="480" width="160" height="80" as="geometry" />
        </mxCell>
        <mxCell id="QfHRXGQwTdcdcZYuf7eO-15" style="edgeStyle=orthogonalEdgeStyle;rounded=0;orthogonalLoop=1;jettySize=auto;html=1;entryX=0.5;entryY=1;entryDx=0;entryDy=0;endArrow=diamond;endFill=0;" parent="1" source="QfHRXGQwTdcdcZYuf7eO-5" target="QfHRXGQwTdcdcZYuf7eO-3" edge="1">
          <mxGeometry relative="1" as="geometry" />
        </mxCell>
        <mxCell id="QfHRXGQwTdcdcZYuf7eO-5" value="VulkanClasses" style="swimlane;fontStyle=0;childLayout=stackLayout;horizontal=1;startSize=30;horizontalStack=0;resizeParent=1;resizeParentMax=0;resizeLast=0;collapsible=1;marginBottom=0;whiteSpace=wrap;html=1;" parent="1" vertex="1">
          <mxGeometry x="-480" y="640" width="160" height="150" as="geometry" />
        </mxCell>
        <mxCell id="QfHRXGQwTdcdcZYuf7eO-6" value="Instance" style="text;strokeColor=none;fillColor=none;align=left;verticalAlign=middle;spacingLeft=4;spacingRight=4;overflow=hidden;points=[[0,0.5],[1,0.5]];portConstraint=eastwest;rotatable=0;whiteSpace=wrap;html=1;" parent="QfHRXGQwTdcdcZYuf7eO-5" vertex="1">
          <mxGeometry y="30" width="160" height="30" as="geometry" />
        </mxCell>
        <mxCell id="QfHRXGQwTdcdcZYuf7eO-7" value="Device" style="text;strokeColor=none;fillColor=none;align=left;verticalAlign=middle;spacingLeft=4;spacingRight=4;overflow=hidden;points=[[0,0.5],[1,0.5]];portConstraint=eastwest;rotatable=0;whiteSpace=wrap;html=1;" parent="QfHRXGQwTdcdcZYuf7eO-5" vertex="1">
          <mxGeometry y="60" width="160" height="30" as="geometry" />
        </mxCell>
        <mxCell id="QfHRXGQwTdcdcZYuf7eO-8" value="Pipeline" style="text;strokeColor=none;fillColor=none;align=left;verticalAlign=middle;spacingLeft=4;spacingRight=4;overflow=hidden;points=[[0,0.5],[1,0.5]];portConstraint=eastwest;rotatable=0;whiteSpace=wrap;html=1;" parent="QfHRXGQwTdcdcZYuf7eO-5" vertex="1">
          <mxGeometry y="90" width="160" height="30" as="geometry" />
        </mxCell>
        <mxCell id="QfHRXGQwTdcdcZYuf7eO-9" value="...." style="text;strokeColor=none;fillColor=none;align=left;verticalAlign=middle;spacingLeft=4;spacingRight=4;overflow=hidden;points=[[0,0.5],[1,0.5]];portConstraint=eastwest;rotatable=0;whiteSpace=wrap;html=1;" parent="QfHRXGQwTdcdcZYuf7eO-5" vertex="1">
          <mxGeometry y="120" width="160" height="30" as="geometry" />
        </mxCell>
        <mxCell id="QfHRXGQwTdcdcZYuf7eO-16" style="edgeStyle=orthogonalEdgeStyle;rounded=0;orthogonalLoop=1;jettySize=auto;html=1;exitX=0.5;exitY=0;exitDx=0;exitDy=0;endArrow=diamond;endFill=0;" parent="1" source="QfHRXGQwTdcdcZYuf7eO-10" target="QfHRXGQwTdcdcZYuf7eO-4" edge="1">
          <mxGeometry relative="1" as="geometry" />
        </mxCell>
        <mxCell id="QfHRXGQwTdcdcZYuf7eO-10" value="VulkanClasses" style="swimlane;fontStyle=0;childLayout=stackLayout;horizontal=1;startSize=30;horizontalStack=0;resizeParent=1;resizeParentMax=0;resizeLast=0;collapsible=1;marginBottom=0;whiteSpace=wrap;html=1;" parent="1" vertex="1">
          <mxGeometry x="-240" y="640" width="160" height="150" as="geometry" />
        </mxCell>
        <mxCell id="QfHRXGQwTdcdcZYuf7eO-11" value="DescriptorSets" style="text;strokeColor=none;fillColor=none;align=left;verticalAlign=middle;spacingLeft=4;spacingRight=4;overflow=hidden;points=[[0,0.5],[1,0.5]];portConstraint=eastwest;rotatable=0;whiteSpace=wrap;html=1;" parent="QfHRXGQwTdcdcZYuf7eO-10" vertex="1">
          <mxGeometry y="30" width="160" height="30" as="geometry" />
        </mxCell>
        <mxCell id="QfHRXGQwTdcdcZYuf7eO-12" value="CommandBuffers" style="text;strokeColor=none;fillColor=none;align=left;verticalAlign=middle;spacingLeft=4;spacingRight=4;overflow=hidden;points=[[0,0.5],[1,0.5]];portConstraint=eastwest;rotatable=0;whiteSpace=wrap;html=1;" parent="QfHRXGQwTdcdcZYuf7eO-10" vertex="1">
          <mxGeometry y="60" width="160" height="30" as="geometry" />
        </mxCell>
        <mxCell id="QfHRXGQwTdcdcZYuf7eO-13" value="Semaphores" style="text;strokeColor=none;fillColor=none;align=left;verticalAlign=middle;spacingLeft=4;spacingRight=4;overflow=hidden;points=[[0,0.5],[1,0.5]];portConstraint=eastwest;rotatable=0;whiteSpace=wrap;html=1;" parent="QfHRXGQwTdcdcZYuf7eO-10" vertex="1">
          <mxGeometry y="90" width="160" height="30" as="geometry" />
        </mxCell>
        <mxCell id="QfHRXGQwTdcdcZYuf7eO-14" value="...." style="text;strokeColor=none;fillColor=none;align=left;verticalAlign=middle;spacingLeft=4;spacingRight=4;overflow=hidden;points=[[0,0.5],[1,0.5]];portConstraint=eastwest;rotatable=0;whiteSpace=wrap;html=1;" parent="QfHRXGQwTdcdcZYuf7eO-10" vertex="1">
          <mxGeometry y="120" width="160" height="30" as="geometry" />
        </mxCell>
        <mxCell id="QfHRXGQwTdcdcZYuf7eO-21" style="edgeStyle=orthogonalEdgeStyle;rounded=0;orthogonalLoop=1;jettySize=auto;html=1;exitX=0.5;exitY=0;exitDx=0;exitDy=0;entryX=0.5;entryY=1;entryDx=0;entryDy=0;endArrow=diamond;endFill=0;" parent="1" source="QfHRXGQwTdcdcZYuf7eO-20" target="QfHRXGQwTdcdcZYuf7eO-1" edge="1">
          <mxGeometry relative="1" as="geometry" />
        </mxCell>
        <mxCell id="QfHRXGQwTdcdcZYuf7eO-20" value="ComponentBase&lt;br&gt;[ As polymophic base ]" style="rounded=0;whiteSpace=wrap;html=1;" parent="1" vertex="1">
          <mxGeometry x="200" y="320" width="160" height="80" as="geometry" />
        </mxCell>
        <mxCell id="QfHRXGQwTdcdcZYuf7eO-23" style="edgeStyle=orthogonalEdgeStyle;rounded=0;orthogonalLoop=1;jettySize=auto;html=1;exitX=0.5;exitY=0;exitDx=0;exitDy=0;endArrow=diamond;endFill=0;" parent="1" source="QfHRXGQwTdcdcZYuf7eO-22" target="QfHRXGQwTdcdcZYuf7eO-20" edge="1">
          <mxGeometry relative="1" as="geometry" />
        </mxCell>
        <mxCell id="QfHRXGQwTdcdcZYuf7eO-22" value="Component&lt;div&gt;[ Concrete Instantiations ]&lt;br&gt;[ CRTP ]&lt;/div&gt;" style="rounded=0;whiteSpace=wrap;html=1;fontColor=#0066CC;" parent="1" vertex="1">
          <mxGeometry x="200" y="480" width="160" height="80" as="geometry" />
        </mxCell>
        <mxCell id="QfHRXGQwTdcdcZYuf7eO-35" style="edgeStyle=orthogonalEdgeStyle;rounded=0;orthogonalLoop=1;jettySize=auto;html=1;exitX=0.5;exitY=0;exitDx=0;exitDy=0;endArrow=diamond;endFill=0;" parent="1" source="QfHRXGQwTdcdcZYuf7eO-29" target="QfHRXGQwTdcdcZYuf7eO-22" edge="1">
          <mxGeometry relative="1" as="geometry" />
        </mxCell>
        <mxCell id="QfHRXGQwTdcdcZYuf7eO-29" value="CoreComponents" style="swimlane;fontStyle=0;childLayout=stackLayout;horizontal=1;startSize=30;horizontalStack=0;resizeParent=1;resizeParentMax=0;resizeLast=0;collapsible=1;marginBottom=0;whiteSpace=wrap;html=1;" parent="1" vertex="1">
          <mxGeometry x="80" y="640" width="160" height="150" as="geometry" />
        </mxCell>
        <mxCell id="QfHRXGQwTdcdcZYuf7eO-30" value="StaticMeshComponent" style="text;strokeColor=none;fillColor=none;align=left;verticalAlign=middle;spacingLeft=4;spacingRight=4;overflow=hidden;points=[[0,0.5],[1,0.5]];portConstraint=eastwest;rotatable=0;whiteSpace=wrap;html=1;" parent="QfHRXGQwTdcdcZYuf7eO-29" vertex="1">
          <mxGeometry y="30" width="160" height="30" as="geometry" />
        </mxCell>
        <mxCell id="QfHRXGQwTdcdcZYuf7eO-31" value="ComputeComponent" style="text;strokeColor=none;fillColor=none;align=left;verticalAlign=middle;spacingLeft=4;spacingRight=4;overflow=hidden;points=[[0,0.5],[1,0.5]];portConstraint=eastwest;rotatable=0;whiteSpace=wrap;html=1;" parent="QfHRXGQwTdcdcZYuf7eO-29" vertex="1">
          <mxGeometry y="60" width="160" height="30" as="geometry" />
        </mxCell>
        <mxCell id="QfHRXGQwTdcdcZYuf7eO-32" value="TransformComponent" style="text;strokeColor=none;fillColor=none;align=left;verticalAlign=middle;spacingLeft=4;spacingRight=4;overflow=hidden;points=[[0,0.5],[1,0.5]];portConstraint=eastwest;rotatable=0;whiteSpace=wrap;html=1;" parent="QfHRXGQwTdcdcZYuf7eO-29" vertex="1">
          <mxGeometry y="90" width="160" height="30" as="geometry" />
        </mxCell>
        <mxCell id="QfHRXGQwTdcdcZYuf7eO-33" value="...." style="text;strokeColor=none;fillColor=none;align=left;verticalAlign=middle;spacingLeft=4;spacingRight=4;overflow=hidden;points=[[0,0.5],[1,0.5]];portConstraint=eastwest;rotatable=0;whiteSpace=wrap;html=1;" parent="QfHRXGQwTdcdcZYuf7eO-29" vertex="1">
          <mxGeometry y="120" width="160" height="30" as="geometry" />
        </mxCell>
        <mxCell id="QfHRXGQwTdcdcZYuf7eO-36" style="edgeStyle=orthogonalEdgeStyle;rounded=0;orthogonalLoop=1;jettySize=auto;html=1;exitX=0.5;exitY=0;exitDx=0;exitDy=0;entryX=0.5;entryY=1;entryDx=0;entryDy=0;endArrow=diamond;endFill=0;" parent="1" source="QfHRXGQwTdcdcZYuf7eO-34" target="QfHRXGQwTdcdcZYuf7eO-22" edge="1">
          <mxGeometry relative="1" as="geometry" />
        </mxCell>
        <mxCell id="QfHRXGQwTdcdcZYuf7eO-34" value="ActionComponent&lt;div&gt;[ Concrete Instantiations ]&lt;br&gt;[ proves lifecycle events ]&lt;/div&gt;" style="rounded=0;whiteSpace=wrap;html=1;fontColor=#0066CC;" parent="1" vertex="1">
          <mxGeometry x="320" y="640" width="160" height="80" as="geometry" />
        </mxCell>
        <mxCell id="QfHRXGQwTdcdcZYuf7eO-42" style="edgeStyle=orthogonalEdgeStyle;rounded=0;orthogonalLoop=1;jettySize=auto;html=1;exitX=0.5;exitY=0;exitDx=0;exitDy=0;entryX=0.5;entryY=1;entryDx=0;entryDy=0;endArrow=diamond;endFill=0;" parent="1" source="QfHRXGQwTdcdcZYuf7eO-37" target="QfHRXGQwTdcdcZYuf7eO-34" edge="1">
          <mxGeometry relative="1" as="geometry" />
        </mxCell>
        <mxCell id="QfHRXGQwTdcdcZYuf7eO-37" value="ActionComponents" style="swimlane;fontStyle=0;childLayout=stackLayout;horizontal=1;startSize=30;horizontalStack=0;resizeParent=1;resizeParentMax=0;resizeLast=0;collapsible=1;marginBottom=0;whiteSpace=wrap;html=1;" parent="1" vertex="1">
          <mxGeometry x="320" y="800" width="160" height="120" as="geometry" />
        </mxCell>
        <mxCell id="QfHRXGQwTdcdcZYuf7eO-38" value="acl::EntityRotator" style="text;strokeColor=none;fillColor=none;align=left;verticalAlign=middle;spacingLeft=4;spacingRight=4;overflow=hidden;points=[[0,0.5],[1,0.5]];portConstraint=eastwest;rotatable=0;whiteSpace=wrap;html=1;" parent="QfHRXGQwTdcdcZYuf7eO-37" vertex="1">
          <mxGeometry y="30" width="160" height="30" as="geometry" />
        </mxCell>
        <mxCell id="QfHRXGQwTdcdcZYuf7eO-39" value="acl::SimpleController" style="text;strokeColor=none;fillColor=none;align=left;verticalAlign=middle;spacingLeft=4;spacingRight=4;overflow=hidden;points=[[0,0.5],[1,0.5]];portConstraint=eastwest;rotatable=0;whiteSpace=wrap;html=1;" parent="QfHRXGQwTdcdcZYuf7eO-37" vertex="1">
          <mxGeometry y="60" width="160" height="30" as="geometry" />
        </mxCell>
        <mxCell id="QfHRXGQwTdcdcZYuf7eO-41" value="...." style="text;strokeColor=none;fillColor=none;align=left;verticalAlign=middle;spacingLeft=4;spacingRight=4;overflow=hidden;points=[[0,0.5],[1,0.5]];portConstraint=eastwest;rotatable=0;whiteSpace=wrap;html=1;" parent="QfHRXGQwTdcdcZYuf7eO-37" vertex="1">
          <mxGeometry y="90" width="160" height="30" as="geometry" />
        </mxCell>
        <mxCell id="QfHRXGQwTdcdcZYuf7eO-43" value="&lt;h1 style=&quot;margin-top: 0px;&quot;&gt;Inheritance&lt;/h1&gt;&lt;p&gt;This diagram illustrates inheritance hierarchy in AfterglowRender. These base classes provide polymophic (virtual function) and CRTP abilities for derived classes.&amp;nbsp;&lt;br&gt;&lt;br&gt;The template classes were highlighted&amp;nbsp;in blue.&lt;/p&gt;" style="text;html=1;whiteSpace=wrap;overflow=hidden;rounded=0;" parent="1" vertex="1">
          <mxGeometry x="-560" y="80" width="310" height="140" as="geometry" />
        </mxCell>
      </root>
    </mxGraphModel>
  </diagram>
</mxfile>
